<svg height="7518" width="720" xmlns="http://www.w3.org/2000/svg">
<rect height="7518" fill="#555" width="720"></rect>
<text fill="#7f7" font-family="Courier New" font-size="12" xml:space="preserve">
<tspan x="10" y="26">406 megabytes installed</tspan>
<tspan x="10" y="42"></tspan>
<tspan x="10" y="58">node_modules</tspan>
<tspan x="10" y="74">└─┬ flex-combo@1.1.6 </tspan>
<tspan x="10" y="90">  ├── async@1.5.2 </tspan>
<tspan x="10" y="106">  ├─┬ commander@2.9.0 </tspan>
<tspan x="10" y="122">  │ └── graceful-readlink@1.0.1 </tspan>
<tspan x="10" y="138">  ├─┬ dac@0.11.0 </tspan>
<tspan x="10" y="154">  │ ├─┬ babel-code-frame@6.7.7 </tspan>
<tspan x="10" y="170">  │ │ ├── esutils@2.0.2 </tspan>
<tspan x="10" y="186">  │ │ └── js-tokens@1.0.3 </tspan>
<tspan x="10" y="202">  │ ├─┬ babel-core@6.7.7 </tspan>
<tspan x="10" y="218">  │ │ ├─┬ babel-generator@6.24.1 </tspan>
<tspan x="10" y="234">  │ │ │ ├── babel-messages@6.23.0 </tspan>
<tspan x="10" y="250">  │ │ │ ├─┬ babel-runtime@6.23.0 </tspan>
<tspan x="10" y="266">  │ │ │ │ ├── core-js@2.4.1 </tspan>
<tspan x="10" y="282">  │ │ │ │ └── regenerator-runtime@0.10.3 </tspan>
<tspan x="10" y="298">  │ │ │ ├── babel-types@6.24.1 </tspan>
<tspan x="10" y="314">  │ │ │ ├─┬ detect-indent@4.0.0 </tspan>
<tspan x="10" y="330">  │ │ │ │ └── repeating@2.0.1 </tspan>
<tspan x="10" y="346">  │ │ │ ├── jsesc@1.3.0 </tspan>
<tspan x="10" y="362">  │ │ │ ├── lodash@4.17.4 </tspan>
<tspan x="10" y="378">  │ │ │ └── trim-right@1.0.1 </tspan>
<tspan x="10" y="394">  │ │ ├─┬ babel-helpers@6.24.1 </tspan>
<tspan x="10" y="410">  │ │ │ ├─┬ babel-runtime@6.23.0 </tspan>
<tspan x="10" y="426">  │ │ │ │ └── core-js@2.4.1 </tspan>
<tspan x="10" y="442">  │ │ │ └─┬ babel-template@6.24.1 </tspan>
<tspan x="10" y="458">  │ │ │   ├─┬ babel-traverse@6.24.1 </tspan>
<tspan x="10" y="474">  │ │ │   │ ├─┬ babel-code-frame@6.22.0 </tspan>
<tspan x="10" y="490">  │ │ │   │ │ └── js-tokens@3.0.1 </tspan>
<tspan x="10" y="506">  │ │ │   │ └── babel-messages@6.23.0 </tspan>
<tspan x="10" y="522">  │ │ │   ├── babel-types@6.24.1 </tspan>
<tspan x="10" y="538">  │ │ │   └── lodash@4.17.4 </tspan>
<tspan x="10" y="554">  │ │ ├─┬ babel-register@6.24.1 </tspan>
<tspan x="10" y="570">  │ │ │ ├─┬ babel-core@6.24.1 </tspan>
<tspan x="10" y="586">  │ │ │ │ ├─┬ babel-code-frame@6.22.0 </tspan>
<tspan x="10" y="602">  │ │ │ │ │ └── js-tokens@3.0.1 </tspan>
<tspan x="10" y="618">  │ │ │ │ ├── babel-messages@6.23.0 </tspan>
<tspan x="10" y="634">  │ │ │ │ ├── babel-template@6.24.1 </tspan>
<tspan x="10" y="650">  │ │ │ │ ├── babel-traverse@6.24.1 </tspan>
<tspan x="10" y="666">  │ │ │ │ ├── babel-types@6.24.1 </tspan>
<tspan x="10" y="682">  │ │ │ │ ├── json5@0.5.1 </tspan>
<tspan x="10" y="698">  │ │ │ │ └── minimatch@3.0.3 </tspan>
<tspan x="10" y="714">  │ │ │ ├── babel-runtime@6.23.0 </tspan>
<tspan x="10" y="730">  │ │ │ ├── core-js@2.4.1 </tspan>
<tspan x="10" y="746">  │ │ │ ├─┬ home-or-tmp@2.0.0 </tspan>
<tspan x="10" y="762">  │ │ │ │ ├── os-homedir@1.0.2 </tspan>
<tspan x="10" y="778">  │ │ │ │ └── os-tmpdir@1.0.2 </tspan>
<tspan x="10" y="794">  │ │ │ ├── lodash@4.17.4 </tspan>
<tspan x="10" y="810">  │ │ │ └── source-map-support@0.4.14 </tspan>
<tspan x="10" y="826">  │ │ ├── babylon@6.16.1 </tspan>
<tspan x="10" y="842">  │ │ ├── convert-source-map@1.5.0 </tspan>
<tspan x="10" y="858">  │ │ ├─┬ debug@2.6.3 </tspan>
<tspan x="10" y="874">  │ │ │ └── ms@0.7.2 </tspan>
<tspan x="10" y="890">  │ │ ├── json5@0.4.0 </tspan>
<tspan x="10" y="906">  │ │ ├── lodash@3.10.1 </tspan>
<tspan x="10" y="922">  │ │ ├─┬ minimatch@2.0.10 </tspan>
<tspan x="10" y="938">  │ │ │ └─┬ brace-expansion@1.1.7 </tspan>
<tspan x="10" y="954">  │ │ │   ├── balanced-match@0.4.2 </tspan>
<tspan x="10" y="970">  │ │ │   └── concat-map@0.0.1 </tspan>
<tspan x="10" y="986">  │ │ ├── path-exists@1.0.0 </tspan>
<tspan x="10" y="1002">  │ │ ├── private@0.1.7 </tspan>
<tspan x="10" y="1018">  │ │ ├── shebang-regex@1.0.0 </tspan>
<tspan x="10" y="1034">  │ │ ├── slash@1.0.0 </tspan>
<tspan x="10" y="1050">  │ │ └── source-map@0.5.6 </tspan>
<tspan x="10" y="1066">  │ ├── babel-helper-define-map@6.6.5 </tspan>
<tspan x="10" y="1082">  │ ├── babel-helper-function-name@6.6.0 </tspan>
<tspan x="10" y="1098">  │ ├── babel-helper-get-function-arity@6.6.5 </tspan>
<tspan x="10" y="1114">  │ ├── babel-helper-optimise-call-expression@6.6.0 </tspan>
<tspan x="10" y="1130">  │ ├── babel-helper-regex@6.6.5 </tspan>
<tspan x="10" y="1146">  │ ├── babel-helper-replace-supers@6.7.0 </tspan>
<tspan x="10" y="1162">  │ ├── babel-messages@6.7.2 </tspan>
<tspan x="10" y="1178">  │ ├── babel-plugin-syntax-async-functions@6.5.0 </tspan>
<tspan x="10" y="1194">  │ ├─┬ babel-preset-es2015@6.6.0 </tspan>
<tspan x="10" y="1210">  │ │ ├─┬ babel-plugin-check-es2015-constants@6.22.0 </tspan>
<tspan x="10" y="1226">  │ │ │ └─┬ babel-runtime@6.23.0 </tspan>
<tspan x="10" y="1242">  │ │ │   └── core-js@2.4.1 </tspan>
<tspan x="10" y="1258">  │ │ ├─┬ babel-plugin-transform-es2015-arrow-functions@6.22.0 </tspan>
<tspan x="10" y="1274">  │ │ │ └─┬ babel-runtime@6.23.0 </tspan>
<tspan x="10" y="1290">  │ │ │   └── core-js@2.4.1 </tspan>
<tspan x="10" y="1306">  │ │ ├─┬ babel-plugin-transform-es2015-block-scoped-functions@6.22.0 </tspan>
<tspan x="10" y="1322">  │ │ │ └─┬ babel-runtime@6.23.0 </tspan>
<tspan x="10" y="1338">  │ │ │   └── core-js@2.4.1 </tspan>
<tspan x="10" y="1354">  │ │ ├─┬ babel-plugin-transform-es2015-block-scoping@6.24.1 </tspan>
<tspan x="10" y="1370">  │ │ │ ├─┬ babel-runtime@6.23.0 </tspan>
<tspan x="10" y="1386">  │ │ │ │ └── core-js@2.4.1 </tspan>
<tspan x="10" y="1402">  │ │ │ ├── babel-template@6.24.1 </tspan>
<tspan x="10" y="1418">  │ │ │ ├─┬ babel-traverse@6.24.1 </tspan>
<tspan x="10" y="1434">  │ │ │ │ ├─┬ babel-code-frame@6.22.0 </tspan>
<tspan x="10" y="1450">  │ │ │ │ │ └── js-tokens@3.0.1 </tspan>
<tspan x="10" y="1466">  │ │ │ │ ├── babel-messages@6.23.0 </tspan>
<tspan x="10" y="1482">  │ │ │ │ └── globals@9.17.0 </tspan>
<tspan x="10" y="1498">  │ │ │ ├── babel-types@6.24.1 </tspan>
<tspan x="10" y="1514">  │ │ │ └── lodash@4.17.4 </tspan>
<tspan x="10" y="1530">  │ │ ├─┬ babel-plugin-transform-es2015-classes@6.24.1 </tspan>
<tspan x="10" y="1546">  │ │ │ ├─┬ babel-helper-define-map@6.24.1 </tspan>
<tspan x="10" y="1562">  │ │ │ │ └── lodash@4.17.4 </tspan>
<tspan x="10" y="1578">  │ │ │ ├─┬ babel-helper-function-name@6.24.1 </tspan>
<tspan x="10" y="1594">  │ │ │ │ └── babel-helper-get-function-arity@6.24.1 </tspan>
<tspan x="10" y="1610">  │ │ │ ├── babel-helper-optimise-call-expression@6.24.1 </tspan>
<tspan x="10" y="1626">  │ │ │ ├── babel-helper-replace-supers@6.24.1 </tspan>
<tspan x="10" y="1642">  │ │ │ ├── babel-messages@6.23.0 </tspan>
<tspan x="10" y="1658">  │ │ │ ├─┬ babel-runtime@6.23.0 </tspan>
<tspan x="10" y="1674">  │ │ │ │ └── core-js@2.4.1 </tspan>
<tspan x="10" y="1690">  │ │ │ ├── babel-template@6.24.1 </tspan>
<tspan x="10" y="1706">  │ │ │ ├─┬ babel-traverse@6.24.1 </tspan>
<tspan x="10" y="1722">  │ │ │ │ └─┬ babel-code-frame@6.22.0 </tspan>
<tspan x="10" y="1738">  │ │ │ │   └── js-tokens@3.0.1 </tspan>
<tspan x="10" y="1754">  │ │ │ └── babel-types@6.24.1 </tspan>
<tspan x="10" y="1770">  │ │ ├─┬ babel-plugin-transform-es2015-computed-properties@6.24.1 </tspan>
<tspan x="10" y="1786">  │ │ │ ├─┬ babel-runtime@6.23.0 </tspan>
<tspan x="10" y="1802">  │ │ │ │ └── core-js@2.4.1 </tspan>
<tspan x="10" y="1818">  │ │ │ └─┬ babel-template@6.24.1 </tspan>
<tspan x="10" y="1834">  │ │ │   ├─┬ babel-traverse@6.24.1 </tspan>
<tspan x="10" y="1850">  │ │ │   │ ├─┬ babel-code-frame@6.22.0 </tspan>
<tspan x="10" y="1866">  │ │ │   │ │ └── js-tokens@3.0.1 </tspan>
<tspan x="10" y="1882">  │ │ │   │ └── babel-messages@6.23.0 </tspan>
<tspan x="10" y="1898">  │ │ │   ├── babel-types@6.24.1 </tspan>
<tspan x="10" y="1914">  │ │ │   └── lodash@4.17.4 </tspan>
<tspan x="10" y="1930">  │ │ ├─┬ babel-plugin-transform-es2015-destructuring@6.23.0 </tspan>
<tspan x="10" y="1946">  │ │ │ └─┬ babel-runtime@6.23.0 </tspan>
<tspan x="10" y="1962">  │ │ │   └── core-js@2.4.1 </tspan>
<tspan x="10" y="1978">  │ │ ├─┬ babel-plugin-transform-es2015-duplicate-keys@6.24.1 </tspan>
<tspan x="10" y="1994">  │ │ │ ├─┬ babel-runtime@6.23.0 </tspan>
<tspan x="10" y="2010">  │ │ │ │ └── core-js@2.4.1 </tspan>
<tspan x="10" y="2026">  │ │ │ └─┬ babel-types@6.24.1 </tspan>
<tspan x="10" y="2042">  │ │ │   └── lodash@4.17.4 </tspan>
<tspan x="10" y="2058">  │ │ ├─┬ babel-plugin-transform-es2015-for-of@6.23.0 </tspan>
<tspan x="10" y="2074">  │ │ │ └─┬ babel-runtime@6.23.0 </tspan>
<tspan x="10" y="2090">  │ │ │   └── core-js@2.4.1 </tspan>
<tspan x="10" y="2106">  │ │ ├─┬ babel-plugin-transform-es2015-function-name@6.24.1 </tspan>
<tspan x="10" y="2122">  │ │ │ ├─┬ babel-helper-function-name@6.24.1 </tspan>
<tspan x="10" y="2138">  │ │ │ │ ├── babel-helper-get-function-arity@6.24.1 </tspan>
<tspan x="10" y="2154">  │ │ │ │ ├── babel-template@6.24.1 </tspan>
<tspan x="10" y="2170">  │ │ │ │ └─┬ babel-traverse@6.24.1 </tspan>
<tspan x="10" y="2186">  │ │ │ │   ├─┬ babel-code-frame@6.22.0 </tspan>
<tspan x="10" y="2202">  │ │ │ │   │ └── js-tokens@3.0.1 </tspan>
<tspan x="10" y="2218">  │ │ │ │   └── babel-messages@6.23.0 </tspan>
<tspan x="10" y="2234">  │ │ │ ├─┬ babel-runtime@6.23.0 </tspan>
<tspan x="10" y="2250">  │ │ │ │ └── core-js@2.4.1 </tspan>
<tspan x="10" y="2266">  │ │ │ └─┬ babel-types@6.24.1 </tspan>
<tspan x="10" y="2282">  │ │ │   └── lodash@4.17.4 </tspan>
<tspan x="10" y="2298">  │ │ ├─┬ babel-plugin-transform-es2015-literals@6.22.0 </tspan>
<tspan x="10" y="2314">  │ │ │ └─┬ babel-runtime@6.23.0 </tspan>
<tspan x="10" y="2330">  │ │ │   └── core-js@2.4.1 </tspan>
<tspan x="10" y="2346">  │ │ ├─┬ babel-plugin-transform-es2015-modules-commonjs@6.24.1 </tspan>
<tspan x="10" y="2362">  │ │ │ ├─┬ babel-plugin-transform-strict-mode@6.24.1 </tspan>
<tspan x="10" y="2378">  │ │ │ │ ├─┬ babel-runtime@6.23.0 </tspan>
<tspan x="10" y="2394">  │ │ │ │ │ └── core-js@2.4.1 </tspan>
<tspan x="10" y="2410">  │ │ │ │ └─┬ babel-types@6.24.1 </tspan>
<tspan x="10" y="2426">  │ │ │ │   └── lodash@4.17.4 </tspan>
<tspan x="10" y="2442">  │ │ │ ├─┬ babel-runtime@6.23.0 </tspan>
<tspan x="10" y="2458">  │ │ │ │ └── core-js@2.4.1 </tspan>
<tspan x="10" y="2474">  │ │ │ ├─┬ babel-template@6.24.1 </tspan>
<tspan x="10" y="2490">  │ │ │ │ ├─┬ babel-traverse@6.24.1 </tspan>
<tspan x="10" y="2506">  │ │ │ │ │ ├─┬ babel-code-frame@6.22.0 </tspan>
<tspan x="10" y="2522">  │ │ │ │ │ │ └── js-tokens@3.0.1 </tspan>
<tspan x="10" y="2538">  │ │ │ │ │ └── babel-messages@6.23.0 </tspan>
<tspan x="10" y="2554">  │ │ │ │ └── lodash@4.17.4 </tspan>
<tspan x="10" y="2570">  │ │ │ └── babel-types@6.24.1 </tspan>
<tspan x="10" y="2586">  │ │ ├─┬ babel-plugin-transform-es2015-object-super@6.24.1 </tspan>
<tspan x="10" y="2602">  │ │ │ ├─┬ babel-helper-replace-supers@6.24.1 </tspan>
<tspan x="10" y="2618">  │ │ │ │ ├── babel-helper-optimise-call-expression@6.24.1 </tspan>
<tspan x="10" y="2634">  │ │ │ │ ├── babel-messages@6.23.0 </tspan>
<tspan x="10" y="2650">  │ │ │ │ ├─┬ babel-template@6.24.1 </tspan>
<tspan x="10" y="2666">  │ │ │ │ │ └── lodash@4.17.4 </tspan>
<tspan x="10" y="2682">  │ │ │ │ ├─┬ babel-traverse@6.24.1 </tspan>
<tspan x="10" y="2698">  │ │ │ │ │ └─┬ babel-code-frame@6.22.0 </tspan>
<tspan x="10" y="2714">  │ │ │ │ │   └── js-tokens@3.0.1 </tspan>
<tspan x="10" y="2730">  │ │ │ │ └── babel-types@6.24.1 </tspan>
<tspan x="10" y="2746">  │ │ │ └─┬ babel-runtime@6.23.0 </tspan>
<tspan x="10" y="2762">  │ │ │   └── core-js@2.4.1 </tspan>
<tspan x="10" y="2778">  │ │ ├─┬ babel-plugin-transform-es2015-parameters@6.24.1 </tspan>
<tspan x="10" y="2794">  │ │ │ ├─┬ babel-helper-call-delegate@6.24.1 </tspan>
<tspan x="10" y="2810">  │ │ │ │ ├─┬ babel-helper-hoist-variables@6.24.1 </tspan>
<tspan x="10" y="2826">  │ │ │ │ │ ├─┬ babel-runtime@6.23.0 </tspan>
<tspan x="10" y="2842">  │ │ │ │ │ │ └── core-js@2.4.1 </tspan>
<tspan x="10" y="2858">  │ │ │ │ │ └─┬ babel-types@6.24.1 </tspan>
<tspan x="10" y="2874">  │ │ │ │ │   └── lodash@4.17.4 </tspan>
<tspan x="10" y="2890">  │ │ │ │ ├─┬ babel-runtime@6.23.0 </tspan>
<tspan x="10" y="2906">  │ │ │ │ │ └── core-js@2.4.1 </tspan>
<tspan x="10" y="2922">  │ │ │ │ ├─┬ babel-traverse@6.24.1 </tspan>
<tspan x="10" y="2938">  │ │ │ │ │ ├─┬ babel-code-frame@6.22.0 </tspan>
<tspan x="10" y="2954">  │ │ │ │ │ │ └── js-tokens@3.0.1 </tspan>
<tspan x="10" y="2970">  │ │ │ │ │ ├── babel-messages@6.23.0 </tspan>
<tspan x="10" y="2986">  │ │ │ │ │ └── lodash@4.17.4 </tspan>
<tspan x="10" y="3002">  │ │ │ │ └── babel-types@6.24.1 </tspan>
<tspan x="10" y="3018">  │ │ │ ├── babel-helper-get-function-arity@6.24.1 </tspan>
<tspan x="10" y="3034">  │ │ │ ├─┬ babel-runtime@6.23.0 </tspan>
<tspan x="10" y="3050">  │ │ │ │ └── core-js@2.4.1 </tspan>
<tspan x="10" y="3066">  │ │ │ ├─┬ babel-template@6.24.1 </tspan>
<tspan x="10" y="3082">  │ │ │ │ └── lodash@4.17.4 </tspan>
<tspan x="10" y="3098">  │ │ │ ├─┬ babel-traverse@6.24.1 </tspan>
<tspan x="10" y="3114">  │ │ │ │ ├─┬ babel-code-frame@6.22.0 </tspan>
<tspan x="10" y="3130">  │ │ │ │ │ └── js-tokens@3.0.1 </tspan>
<tspan x="10" y="3146">  │ │ │ │ └── babel-messages@6.23.0 </tspan>
<tspan x="10" y="3162">  │ │ │ └── babel-types@6.24.1 </tspan>
<tspan x="10" y="3178">  │ │ ├─┬ babel-plugin-transform-es2015-shorthand-properties@6.24.1 </tspan>
<tspan x="10" y="3194">  │ │ │ ├─┬ babel-runtime@6.23.0 </tspan>
<tspan x="10" y="3210">  │ │ │ │ └── core-js@2.4.1 </tspan>
<tspan x="10" y="3226">  │ │ │ └─┬ babel-types@6.24.1 </tspan>
<tspan x="10" y="3242">  │ │ │   └── lodash@4.17.4 </tspan>
<tspan x="10" y="3258">  │ │ ├─┬ babel-plugin-transform-es2015-spread@6.22.0 </tspan>
<tspan x="10" y="3274">  │ │ │ └─┬ babel-runtime@6.23.0 </tspan>
<tspan x="10" y="3290">  │ │ │   └── core-js@2.4.1 </tspan>
<tspan x="10" y="3306">  │ │ ├─┬ babel-plugin-transform-es2015-sticky-regex@6.24.1 </tspan>
<tspan x="10" y="3322">  │ │ │ ├─┬ babel-helper-regex@6.24.1 </tspan>
<tspan x="10" y="3338">  │ │ │ │ └── lodash@4.17.4 </tspan>
<tspan x="10" y="3354">  │ │ │ ├─┬ babel-runtime@6.23.0 </tspan>
<tspan x="10" y="3370">  │ │ │ │ └── core-js@2.4.1 </tspan>
<tspan x="10" y="3386">  │ │ │ └── babel-types@6.24.1 </tspan>
<tspan x="10" y="3402">  │ │ ├─┬ babel-plugin-transform-es2015-template-literals@6.22.0 </tspan>
<tspan x="10" y="3418">  │ │ │ └─┬ babel-runtime@6.23.0 </tspan>
<tspan x="10" y="3434">  │ │ │   └── core-js@2.4.1 </tspan>
<tspan x="10" y="3450">  │ │ ├─┬ babel-plugin-transform-es2015-typeof-symbol@6.23.0 </tspan>
<tspan x="10" y="3466">  │ │ │ └─┬ babel-runtime@6.23.0 </tspan>
<tspan x="10" y="3482">  │ │ │   └── core-js@2.4.1 </tspan>
<tspan x="10" y="3498">  │ │ ├─┬ babel-plugin-transform-es2015-unicode-regex@6.24.1 </tspan>
<tspan x="10" y="3514">  │ │ │ ├─┬ babel-helper-regex@6.24.1 </tspan>
<tspan x="10" y="3530">  │ │ │ │ ├── babel-types@6.24.1 </tspan>
<tspan x="10" y="3546">  │ │ │ │ └── lodash@4.17.4 </tspan>
<tspan x="10" y="3562">  │ │ │ ├─┬ babel-runtime@6.23.0 </tspan>
<tspan x="10" y="3578">  │ │ │ │ └── core-js@2.4.1 </tspan>
<tspan x="10" y="3594">  │ │ │ └─┬ regexpu-core@2.0.0 </tspan>
<tspan x="10" y="3610">  │ │ │   ├── regenerate@1.3.2 </tspan>
<tspan x="10" y="3626">  │ │ │   ├── regjsgen@0.2.0 </tspan>
<tspan x="10" y="3642">  │ │ │   └─┬ regjsparser@0.1.5 </tspan>
<tspan x="10" y="3658">  │ │ │     └── jsesc@0.5.0 </tspan>
<tspan x="10" y="3674">  │ │ └─┬ babel-plugin-transform-regenerator@6.24.1 </tspan>
<tspan x="10" y="3690">  │ │   └─┬ regenerator-transform@0.9.11 </tspan>
<tspan x="10" y="3706">  │ │     ├─┬ babel-runtime@6.23.0 </tspan>
<tspan x="10" y="3722">  │ │     │ └── core-js@2.4.1 </tspan>
<tspan x="10" y="3738">  │ │     └─┬ babel-types@6.24.1 </tspan>
<tspan x="10" y="3754">  │ │       └── lodash@4.17.4 </tspan>
<tspan x="10" y="3770">  │ ├─┬ babel-preset-stage-3@6.3.13 </tspan>
<tspan x="10" y="3786">  │ │ ├─┬ babel-plugin-transform-async-to-generator@6.24.1 </tspan>
<tspan x="10" y="3802">  │ │ │ ├─┬ babel-helper-remap-async-to-generator@6.24.1 </tspan>
<tspan x="10" y="3818">  │ │ │ │ ├─┬ babel-helper-function-name@6.24.1 </tspan>
<tspan x="10" y="3834">  │ │ │ │ │ └── babel-helper-get-function-arity@6.24.1 </tspan>
<tspan x="10" y="3850">  │ │ │ │ ├─┬ babel-runtime@6.23.0 </tspan>
<tspan x="10" y="3866">  │ │ │ │ │ └── core-js@2.4.1 </tspan>
<tspan x="10" y="3882">  │ │ │ │ ├─┬ babel-template@6.24.1 </tspan>
<tspan x="10" y="3898">  │ │ │ │ │ └── lodash@4.17.4 </tspan>
<tspan x="10" y="3914">  │ │ │ │ ├─┬ babel-traverse@6.24.1 </tspan>
<tspan x="10" y="3930">  │ │ │ │ │ ├─┬ babel-code-frame@6.22.0 </tspan>
<tspan x="10" y="3946">  │ │ │ │ │ │ └── js-tokens@3.0.1 </tspan>
<tspan x="10" y="3962">  │ │ │ │ │ └── babel-messages@6.23.0 </tspan>
<tspan x="10" y="3978">  │ │ │ │ └── babel-types@6.24.1 </tspan>
<tspan x="10" y="3994">  │ │ │ ├── babel-plugin-syntax-async-functions@6.13.0 </tspan>
<tspan x="10" y="4010">  │ │ │ └─┬ babel-runtime@6.23.0 </tspan>
<tspan x="10" y="4026">  │ │ │   └── core-js@2.4.1 </tspan>
<tspan x="10" y="4042">  │ │ └─┬ babel-plugin-transform-exponentiation-operator@6.24.1 </tspan>
<tspan x="10" y="4058">  │ │   ├─┬ babel-helper-builder-binary-assignment-operator-visitor@6.24.1 </tspan>
<tspan x="10" y="4074">  │ │   │ ├─┬ babel-helper-explode-assignable-expression@6.24.1 </tspan>
<tspan x="10" y="4090">  │ │   │ │ ├─┬ babel-runtime@6.23.0 </tspan>
<tspan x="10" y="4106">  │ │   │ │ │ └── core-js@2.4.1 </tspan>
<tspan x="10" y="4122">  │ │   │ │ ├─┬ babel-traverse@6.24.1 </tspan>
<tspan x="10" y="4138">  │ │   │ │ │ ├─┬ babel-code-frame@6.22.0 </tspan>
<tspan x="10" y="4154">  │ │   │ │ │ │ └── js-tokens@3.0.1 </tspan>
<tspan x="10" y="4170">  │ │   │ │ │ ├── babel-messages@6.23.0 </tspan>
<tspan x="10" y="4186">  │ │   │ │ │ └── lodash@4.17.4 </tspan>
<tspan x="10" y="4202">  │ │   │ │ └── babel-types@6.24.1 </tspan>
<tspan x="10" y="4218">  │ │   │ ├─┬ babel-runtime@6.23.0 </tspan>
<tspan x="10" y="4234">  │ │   │ │ └── core-js@2.4.1 </tspan>
<tspan x="10" y="4250">  │ │   │ └─┬ babel-types@6.24.1 </tspan>
<tspan x="10" y="4266">  │ │   │   └── lodash@4.17.4 </tspan>
<tspan x="10" y="4282">  │ │   ├── babel-plugin-syntax-exponentiation-operator@6.13.0 </tspan>
<tspan x="10" y="4298">  │ │   └─┬ babel-runtime@6.23.0 </tspan>
<tspan x="10" y="4314">  │ │     └── core-js@2.4.1 </tspan>
<tspan x="10" y="4330">  │ ├─┬ babel-runtime@5.8.38 </tspan>
<tspan x="10" y="4346">  │ │ └── core-js@1.2.7 </tspan>
<tspan x="10" y="4362">  │ ├── babel-template@6.7.0 </tspan>
<tspan x="10" y="4378">  │ ├─┬ babel-traverse@6.7.6 </tspan>
<tspan x="10" y="4394">  │ │ ├── globals@8.18.0 </tspan>
<tspan x="10" y="4410">  │ │ ├─┬ invariant@2.2.2 </tspan>
<tspan x="10" y="4426">  │ │ │ └─┬ loose-envify@1.3.1 </tspan>
<tspan x="10" y="4442">  │ │ │   └── js-tokens@3.0.1 </tspan>
<tspan x="10" y="4458">  │ │ └─┬ repeating@1.1.3 </tspan>
<tspan x="10" y="4474">  │ │   └─┬ is-finite@1.0.2 </tspan>
<tspan x="10" y="4490">  │ │     └── number-is-nan@1.0.1 </tspan>
<tspan x="10" y="4506">  │ ├─┬ babel-types@6.7.7 </tspan>
<tspan x="10" y="4522">  │ │ └── to-fast-properties@1.0.2 </tspan>
<tspan x="10" y="4538">  │ ├─┬ clean-css@3.4.25 </tspan>
<tspan x="10" y="4554">  │ │ ├── commander@2.8.1 </tspan>
<tspan x="10" y="4570">  │ │ └─┬ source-map@0.4.4 </tspan>
<tspan x="10" y="4586">  │ │   └── amdefine@1.0.1 </tspan>
<tspan x="10" y="4602">  │ ├─┬ globule@1.0.0 </tspan>
<tspan x="10" y="4618">  │ │ ├─┬ glob@7.0.6 </tspan>
<tspan x="10" y="4634">  │ │ │ ├── fs.realpath@1.0.0 </tspan>
<tspan x="10" y="4650">  │ │ │ ├─┬ inflight@1.0.6 </tspan>
<tspan x="10" y="4666">  │ │ │ │ └── wrappy@1.0.2 </tspan>
<tspan x="10" y="4682">  │ │ │ ├── minimatch@3.0.3 </tspan>
<tspan x="10" y="4698">  │ │ │ └── once@1.4.0 </tspan>
<tspan x="10" y="4714">  │ │ ├── lodash@4.9.0 </tspan>
<tspan x="10" y="4730">  │ │ └── minimatch@3.0.3 </tspan>
<tspan x="10" y="4746">  │ ├── iconv-lite@0.4.15 </tspan>
<tspan x="10" y="4762">  │ ├── is-utf8@0.2.1 </tspan>
<tspan x="10" y="4778">  │ ├─┬ juicer@0.6.14 </tspan>
<tspan x="10" y="4794">  │ │ ├─┬ optimist@0.3.7 </tspan>
<tspan x="10" y="4810">  │ │ │ └── wordwrap@0.0.3 </tspan>
<tspan x="10" y="4826">  │ │ └── uglify-js@1.2.6 </tspan>
<tspan x="10" y="4842">  │ ├─┬ less@2.6.1 </tspan>
<tspan x="10" y="4858">  │ │ ├─┬ errno@0.1.4 </tspan>
<tspan x="10" y="4874">  │ │ │ └── prr@0.0.0 </tspan>
<tspan x="10" y="4890">  │ │ ├── image-size@0.4.0 </tspan>
<tspan x="10" y="4906">  │ │ ├─┬ mkdirp@0.5.1 </tspan>
<tspan x="10" y="4922">  │ │ │ └── minimist@0.0.8 </tspan>
<tspan x="10" y="4938">  │ │ ├─┬ promise@7.1.1 </tspan>
<tspan x="10" y="4954">  │ │ │ └── asap@2.0.5 </tspan>
<tspan x="10" y="4970">  │ │ └─┬ request@2.81.0 </tspan>
<tspan x="10" y="4986">  │ │   ├── aws-sign2@0.6.0 </tspan>
<tspan x="10" y="5002">  │ │   ├── aws4@1.6.0 </tspan>
<tspan x="10" y="5018">  │ │   ├── caseless@0.12.0 </tspan>
<tspan x="10" y="5034">  │ │   ├─┬ combined-stream@1.0.5 </tspan>
<tspan x="10" y="5050">  │ │   │ └── delayed-stream@1.0.0 </tspan>
<tspan x="10" y="5066">  │ │   ├── extend@3.0.0 </tspan>
<tspan x="10" y="5082">  │ │   ├── forever-agent@0.6.1 </tspan>
<tspan x="10" y="5098">  │ │   ├─┬ form-data@2.1.4 </tspan>
<tspan x="10" y="5114">  │ │   │ └── asynckit@0.4.0 </tspan>
<tspan x="10" y="5130">  │ │   ├─┬ har-validator@4.2.1 </tspan>
<tspan x="10" y="5146">  │ │   │ ├─┬ ajv@4.11.7 </tspan>
<tspan x="10" y="5162">  │ │   │ │ ├── co@4.6.0 </tspan>
<tspan x="10" y="5178">  │ │   │ │ └─┬ json-stable-stringify@1.0.1 </tspan>
<tspan x="10" y="5194">  │ │   │ │   └── jsonify@0.0.0 </tspan>
<tspan x="10" y="5210">  │ │   │ └── har-schema@1.0.5 </tspan>
<tspan x="10" y="5226">  │ │   ├─┬ hawk@3.1.3 </tspan>
<tspan x="10" y="5242">  │ │   │ ├── boom@2.10.1 </tspan>
<tspan x="10" y="5258">  │ │   │ ├── cryptiles@2.0.5 </tspan>
<tspan x="10" y="5274">  │ │   │ ├── hoek@2.16.3 </tspan>
<tspan x="10" y="5290">  │ │   │ └── sntp@1.0.9 </tspan>
<tspan x="10" y="5306">  │ │   ├─┬ http-signature@1.1.1 </tspan>
<tspan x="10" y="5322">  │ │   │ ├── assert-plus@0.2.0 </tspan>
<tspan x="10" y="5338">  │ │   │ ├─┬ jsprim@1.4.0 </tspan>
<tspan x="10" y="5354">  │ │   │ │ ├── assert-plus@1.0.0 </tspan>
<tspan x="10" y="5370">  │ │   │ │ ├── extsprintf@1.0.2 </tspan>
<tspan x="10" y="5386">  │ │   │ │ ├── json-schema@0.2.3 </tspan>
<tspan x="10" y="5402">  │ │   │ │ └── verror@1.3.6 </tspan>
<tspan x="10" y="5418">  │ │   │ └─┬ sshpk@1.13.0 </tspan>
<tspan x="10" y="5434">  │ │   │   ├── asn1@0.2.3 </tspan>
<tspan x="10" y="5450">  │ │   │   ├── assert-plus@1.0.0 </tspan>
<tspan x="10" y="5466">  │ │   │   ├── bcrypt-pbkdf@1.0.1 </tspan>
<tspan x="10" y="5482">  │ │   │   ├─┬ dashdash@1.14.1 </tspan>
<tspan x="10" y="5498">  │ │   │   │ └── assert-plus@1.0.0 </tspan>
<tspan x="10" y="5514">  │ │   │   ├── ecc-jsbn@0.1.1 </tspan>
<tspan x="10" y="5530">  │ │   │   ├─┬ getpass@0.1.6 </tspan>
<tspan x="10" y="5546">  │ │   │   │ └── assert-plus@1.0.0 </tspan>
<tspan x="10" y="5562">  │ │   │   ├── jodid25519@1.0.2 </tspan>
<tspan x="10" y="5578">  │ │   │   ├── jsbn@0.1.1 </tspan>
<tspan x="10" y="5594">  │ │   │   └── tweetnacl@0.14.5 </tspan>
<tspan x="10" y="5610">  │ │   ├── is-typedarray@1.0.0 </tspan>
<tspan x="10" y="5626">  │ │   ├── isstream@0.1.2 </tspan>
<tspan x="10" y="5642">  │ │   ├── json-stringify-safe@5.0.1 </tspan>
<tspan x="10" y="5658">  │ │   ├── oauth-sign@0.8.2 </tspan>
<tspan x="10" y="5674">  │ │   ├── performance-now@0.2.0 </tspan>
<tspan x="10" y="5690">  │ │   ├── qs@6.4.0 </tspan>
<tspan x="10" y="5706">  │ │   ├── safe-buffer@5.0.1 </tspan>
<tspan x="10" y="5722">  │ │   ├── stringstream@0.0.5 </tspan>
<tspan x="10" y="5738">  │ │   ├─┬ tough-cookie@2.3.2 </tspan>
<tspan x="10" y="5754">  │ │   │ └── punycode@1.4.1 </tspan>
<tspan x="10" y="5770">  │ │   ├── tunnel-agent@0.6.0 </tspan>
<tspan x="10" y="5786">  │ │   └── uuid@3.0.1 </tspan>
<tspan x="10" y="5802">  │ └─┬ swig@1.4.2 </tspan>
<tspan x="10" y="5818">  │   ├── optimist@0.6.1 </tspan>
<tspan x="10" y="5834">  │   └─┬ uglify-js@2.4.24 </tspan>
<tspan x="10" y="5850">  │     ├── async@0.2.10 </tspan>
<tspan x="10" y="5866">  │     ├── source-map@0.1.34 </tspan>
<tspan x="10" y="5882">  │     ├── uglify-to-browserify@1.0.2 </tspan>
<tspan x="10" y="5898">  │     └─┬ yargs@3.5.4 </tspan>
<tspan x="10" y="5914">  │       ├── camelcase@1.2.1 </tspan>
<tspan x="10" y="5930">  │       ├── decamelize@1.2.0 </tspan>
<tspan x="10" y="5946">  │       ├── window-size@0.1.0 </tspan>
<tspan x="10" y="5962">  │       └── wordwrap@0.0.2 </tspan>
<tspan x="10" y="5978">  ├── fetch-agent@0.4.5 </tspan>
<tspan x="10" y="5994">  ├─┬ fs-extra@0.26.7 </tspan>
<tspan x="10" y="6010">  │ ├── graceful-fs@4.1.11 </tspan>
<tspan x="10" y="6026">  │ ├── jsonfile@2.4.0 </tspan>
<tspan x="10" y="6042">  │ ├── klaw@1.3.1 </tspan>
<tspan x="10" y="6058">  │ ├── path-is-absolute@1.0.1 </tspan>
<tspan x="10" y="6074">  │ └── rimraf@2.6.1 </tspan>
<tspan x="10" y="6090">  ├── merge@1.2.0 </tspan>
<tspan x="10" y="6106">  ├── mime@1.3.4 </tspan>
<tspan x="10" y="6122">  ├─┬ plug-base@0.9.17 </tspan>
<tspan x="10" y="6138">  │ ├─┬ body-parser@1.14.2 </tspan>
<tspan x="10" y="6154">  │ │ ├── bytes@2.2.0 </tspan>
<tspan x="10" y="6170">  │ │ ├── content-type@1.0.2 </tspan>
<tspan x="10" y="6186">  │ │ ├─┬ debug@2.2.0 </tspan>
<tspan x="10" y="6202">  │ │ │ └── ms@0.7.1 </tspan>
<tspan x="10" y="6218">  │ │ ├── depd@1.1.0 </tspan>
<tspan x="10" y="6234">  │ │ ├─┬ http-errors@1.3.1 </tspan>
<tspan x="10" y="6250">  │ │ │ └── statuses@1.3.1 </tspan>
<tspan x="10" y="6266">  │ │ ├── iconv-lite@0.4.13 </tspan>
<tspan x="10" y="6282">  │ │ ├─┬ on-finished@2.3.0 </tspan>
<tspan x="10" y="6298">  │ │ │ └── ee-first@1.1.1 </tspan>
<tspan x="10" y="6314">  │ │ ├── qs@5.2.0 </tspan>
<tspan x="10" y="6330">  │ │ ├─┬ raw-body@2.1.7 </tspan>
<tspan x="10" y="6346">  │ │ │ ├── bytes@2.4.0 </tspan>
<tspan x="10" y="6362">  │ │ │ ├── iconv-lite@0.4.13 </tspan>
<tspan x="10" y="6378">  │ │ │ └── unpipe@1.0.0 </tspan>
<tspan x="10" y="6394">  │ │ └─┬ type-is@1.6.15 </tspan>
<tspan x="10" y="6410">  │ │   └── media-typer@0.3.0 </tspan>
<tspan x="10" y="6426">  │ ├─┬ chalk@1.1.3 </tspan>
<tspan x="10" y="6442">  │ │ ├── ansi-styles@2.2.1 </tspan>
<tspan x="10" y="6458">  │ │ ├── escape-string-regexp@1.0.5 </tspan>
<tspan x="10" y="6474">  │ │ ├─┬ has-ansi@2.0.0 </tspan>
<tspan x="10" y="6490">  │ │ │ └── ansi-regex@2.1.1 </tspan>
<tspan x="10" y="6506">  │ │ ├── strip-ansi@3.0.1 </tspan>
<tspan x="10" y="6522">  │ │ └── supports-color@2.0.0 </tspan>
<tspan x="10" y="6538">  │ ├─┬ connect@3.4.1 </tspan>
<tspan x="10" y="6554">  │ │ ├─┬ debug@2.2.0 </tspan>
<tspan x="10" y="6570">  │ │ │ └── ms@0.7.1 </tspan>
<tspan x="10" y="6586">  │ │ ├─┬ finalhandler@0.4.1 </tspan>
<tspan x="10" y="6602">  │ │ │ └─┬ debug@2.2.0 </tspan>
<tspan x="10" y="6618">  │ │ │   └── ms@0.7.1 </tspan>
<tspan x="10" y="6634">  │ │ ├── parseurl@1.3.1 </tspan>
<tspan x="10" y="6650">  │ │ └── utils-merge@1.0.0 </tspan>
<tspan x="10" y="6666">  │ ├─┬ connect-timeout@1.7.0 </tspan>
<tspan x="10" y="6682">  │ │ ├── debug@2.2.0 </tspan>
<tspan x="10" y="6698">  │ │ ├── ms@0.7.1 </tspan>
<tspan x="10" y="6714">  │ │ └── on-headers@1.0.1 </tspan>
<tspan x="10" y="6730">  │ ├── flex-hosts@0.6.11 </tspan>
<tspan x="10" y="6746">  │ ├── ip@1.1.5 </tspan>
<tspan x="10" y="6762">  │ ├─┬ multer@1.0.6 </tspan>
<tspan x="10" y="6778">  │ │ ├── append-field@0.1.0 </tspan>
<tspan x="10" y="6794">  │ │ ├─┬ busboy@0.2.14 </tspan>
<tspan x="10" y="6810">  │ │ │ ├─┬ dicer@0.2.5 </tspan>
<tspan x="10" y="6826">  │ │ │ │ └── streamsearch@0.1.2 </tspan>
<tspan x="10" y="6842">  │ │ │ └─┬ readable-stream@1.1.14 </tspan>
<tspan x="10" y="6858">  │ │ │   ├── isarray@0.0.1 </tspan>
<tspan x="10" y="6874">  │ │ │   └── string_decoder@0.10.31 </tspan>
<tspan x="10" y="6890">  │ │ ├─┬ concat-stream@1.6.0 </tspan>
<tspan x="10" y="6906">  │ │ │ ├─┬ readable-stream@2.2.9 </tspan>
<tspan x="10" y="6922">  │ │ │ │ ├── isarray@1.0.0 </tspan>
<tspan x="10" y="6938">  │ │ │ │ └── string_decoder@1.0.0 </tspan>
<tspan x="10" y="6954">  │ │ │ └── typedarray@0.0.6 </tspan>
<tspan x="10" y="6970">  │ │ └── object-assign@3.0.0 </tspan>
<tspan x="10" y="6986">  │ ├── node-forge@0.6.49 </tspan>
<tspan x="10" y="7002">  │ ├── qrcode-npm@0.0.3 </tspan>
<tspan x="10" y="7018">  │ ├── qs@6.0.4 </tspan>
<tspan x="10" y="7034">  │ ├─┬ serve-index@1.7.3 </tspan>
<tspan x="10" y="7050">  │ │ ├─┬ accepts@1.2.13 </tspan>
<tspan x="10" y="7066">  │ │ │ └── negotiator@0.5.3 </tspan>
<tspan x="10" y="7082">  │ │ ├── batch@0.5.3 </tspan>
<tspan x="10" y="7098">  │ │ ├─┬ debug@2.2.0 </tspan>
<tspan x="10" y="7114">  │ │ │ └── ms@0.7.1 </tspan>
<tspan x="10" y="7130">  │ │ ├── escape-html@1.0.3 </tspan>
<tspan x="10" y="7146">  │ │ └─┬ mime-types@2.1.15 </tspan>
<tspan x="10" y="7162">  │ │   └── mime-db@1.27.0 </tspan>
<tspan x="10" y="7178">  │ ├─┬ serve-static@1.10.3 </tspan>
<tspan x="10" y="7194">  │ │ └─┬ send@0.13.2 </tspan>
<tspan x="10" y="7210">  │ │   ├── debug@2.2.0 </tspan>
<tspan x="10" y="7226">  │ │   ├── destroy@1.0.4 </tspan>
<tspan x="10" y="7242">  │ │   ├── etag@1.7.0 </tspan>
<tspan x="10" y="7258">  │ │   ├── fresh@0.3.0 </tspan>
<tspan x="10" y="7274">  │ │   ├── ms@0.7.1 </tspan>
<tspan x="10" y="7290">  │ │   ├── range-parser@1.0.3 </tspan>
<tspan x="10" y="7306">  │ │   └── statuses@1.2.1 </tspan>
<tspan x="10" y="7322">  │ └── server-destroy@1.0.1 </tspan>
<tspan x="10" y="7338">  ├── plug-trace@0.2.0 </tspan>
<tspan x="10" y="7354">  └─┬ through2@2.0.3 </tspan>
<tspan x="10" y="7370">    ├─┬ readable-stream@2.2.9 </tspan>
<tspan x="10" y="7386">    │ ├── buffer-shims@1.0.0 </tspan>
<tspan x="10" y="7402">    │ ├── core-util-is@1.0.2 </tspan>
<tspan x="10" y="7418">    │ ├── inherits@2.0.3 </tspan>
<tspan x="10" y="7434">    │ ├── isarray@1.0.0 </tspan>
<tspan x="10" y="7450">    │ ├── process-nextick-args@1.0.7 </tspan>
<tspan x="10" y="7466">    │ ├── string_decoder@1.0.0 </tspan>
<tspan x="10" y="7482">    │ └── util-deprecate@1.0.2 </tspan>
<tspan x="10" y="7498">    └── xtend@4.0.1</tspan>
</text>
</svg>
